<?xml version="1.0" encoding="UTF-8" standalone="no"?>
<!DOCTYPE svg PUBLIC "-//W3C//DTD SVG 1.1//EN" "http://www.w3.org/Graphics/SVG/1.1/DTD/svg11.dtd">
<svg width="100%" height="100%" viewBox="0 0 3959 4009" version="1.1" xmlns="http://www.w3.org/2000/svg" xmlns:xlink="http://www.w3.org/1999/xlink" xml:space="preserve" xmlns:serif="http://www.serif.com/" style="fill-rule:evenodd;clip-rule:evenodd;stroke-linejoin:round;stroke-miterlimit:2;">
    <g transform="matrix(4.16667,0,0,4.16667,0,0)">
        <rect x="0" y="0.724" width="950" height="961.276" style="fill:rgb(51,51,51);fill-rule:nonzero;"/>
        <path d="M551.841,535.682C551.555,506.328 551.697,476.974 551.724,447.62C559.237,447.62 566.765,447.581 574.278,447.594C574.175,476.961 574.655,506.328 574.175,535.682C566.726,535.604 559.29,535.643 551.841,535.682ZM587.851,464.39C591.374,454.068 601.825,447.373 612.382,446.307C619.323,445.826 626.564,445.852 633.091,448.608C640.54,451.39 646.312,457.656 649.224,464.988C649.432,467.926 649.627,470.864 649.809,473.815C642.438,473.815 635.093,473.906 627.734,473.815C627.409,469.798 626.604,464.871 622.548,462.947C617.698,460.191 610.99,462.622 609.08,467.822C608.572,470.877 608.339,474.725 611.068,476.857C620.871,484.696 634.611,485.788 643.595,494.901C647.807,498.579 649.444,504.105 650.329,509.435C650.329,510.384 650.354,512.256 650.367,513.206C649.263,521.057 644.66,528.259 637.692,532.146C627.332,537.996 614.332,538.659 603.204,534.629C595.248,531.717 589.216,524.944 585.939,517.274C585.523,514.375 584.965,511.502 584.405,508.629C591.543,507.264 598.979,507.238 606.129,508.473C606.467,511.371 606.492,514.518 608.364,516.962C610.119,519.614 613.369,520.394 616.112,521.63C620.194,521.396 625.252,520.797 627.24,516.612C629.789,512.399 627.423,506.991 623.497,504.586C614.059,497.982 601.864,496.071 593.428,487.894C586.953,482.135 585.354,472.424 587.851,464.39ZM557.027,420.346C562.54,416.524 571.497,418.916 573.837,425.455C575.02,430.148 574.76,435.881 570.808,439.261C566.647,444.162 558.172,443.551 554.479,438.403C549.748,433.138 551.334,424.272 557.027,420.346ZM659.754,534.876C659.767,492.834 659.688,450.792 659.818,408.737C667.268,408.711 674.729,408.841 682.179,408.62C683.244,413.521 682.854,418.552 682.881,423.531C682.881,434.75 682.828,445.982 682.945,457.214C686.417,452.924 690.277,448.517 695.751,446.853C702.991,444.981 711.468,446.112 717.058,451.429C724.936,458.345 726.781,469.473 727.314,479.418C727.419,498.151 727.405,516.897 727.341,535.643C719.618,535.448 711.832,536.202 704.188,534.837C704.278,516.351 704.305,497.865 704.161,479.379C704.031,474.179 703.499,467.536 698.377,464.728C692.852,462.973 687.196,465.105 683.089,468.862C682.673,490.845 682.972,512.828 682.984,534.811C677.291,536.332 671.454,534.629 665.682,535.175C663.692,535.084 661.717,534.98 659.754,534.876ZM531.21,408.542C533.095,407.125 535.175,405.175 537.749,405.825C539.088,409.179 540.128,412.663 541.492,416.017C527.011,431.656 522.616,453.652 521.018,474.244C520.12,497.436 520.68,521.578 530.17,543.183C532.835,549.761 536.956,555.624 541.57,560.98C540.153,564.308 538.958,567.727 538.139,571.25C533.004,570.99 529.48,566.557 525.971,563.32C511.84,547.408 504.521,526.387 502.492,505.418C501.596,485.255 501.192,464.507 507.966,445.189C512.841,431.5 519.796,417.915 531.21,408.542ZM739.859,404.707C749.142,408.828 755.681,417.122 760.867,425.572C772.516,444.305 777.352,466.652 776.948,488.557C777.339,508.174 773.659,528.129 764.352,545.523C759.373,554.792 753.224,563.853 744.396,569.846C743.045,570.834 741.367,571.107 739.795,571.51C738.768,567.74 736.7,564.178 736.415,560.265C753.483,540.869 756.89,513.492 756.409,488.596C756.968,463.545 753.146,436.336 736.428,416.589C736.35,412.442 738.91,408.698 739.859,404.707Z" style="fill:rgb(100,101,101);fill-rule:nonzero;"/>
        <path d="M331.191,455.992C331.114,453.197 331.399,450.415 331.881,447.659C339.343,447.815 346.817,447.711 354.28,447.776C354.384,466.145 354.241,484.514 354.384,502.883C354.357,507.42 355.566,511.84 357.075,516.091C362.47,521.915 371.816,519.224 376.25,513.543C376.171,491.599 376.185,469.668 376.198,447.737C383.699,447.776 391.2,447.789 398.713,447.737C398.688,476.974 399.026,506.224 398.558,535.448C392.617,534.512 386.584,535.11 380.618,534.993C379.851,531.028 379.058,527.076 378.226,523.123C376.666,524.996 375.209,526.933 373.819,528.922C366.643,539.478 349.717,539.933 341.084,530.95C337.483,527.674 335.469,523.151 333.831,518.665C333.44,516.897 333.012,515.143 332.543,513.401C332.102,509.474 331.907,505.522 331.322,501.621C331.14,486.412 331.334,471.202 331.191,455.992ZM195.81,502.532C195.173,505.691 194.575,508.876 194.432,512.113C195.667,515.675 197.643,518.951 201.244,520.472C208.238,520.238 215.258,515.558 216.194,508.265C216.128,504.455 216.155,500.647 215.739,496.864C210.916,496.864 206.041,496.435 201.244,497.176C198.865,498.294 197.409,500.556 195.81,502.532ZM183.316,454.666C192.897,445.384 207.653,444.539 219.951,447.854C227.764,450.805 234.225,456.941 237.033,464.858C237.657,467.939 238.528,471.007 238.541,474.166C238.697,488.037 238.501,501.921 238.593,515.792C238.566,522.331 240.452,528.636 241.843,534.967C234.354,535.058 226.867,534.941 219.378,534.941C219.066,534.109 218.417,532.471 218.092,531.652C217.52,528.987 216.87,526.335 216.311,523.683C215.908,523.891 215.088,524.32 214.686,524.529C211.838,529.871 207.341,534.928 201.257,536.423C190.35,539.231 177.701,533.563 173.853,522.669C173.45,521.279 173.034,519.901 172.592,518.535C172.007,513.699 172.072,508.824 172.514,503.988C174.581,496.487 179.858,489.922 187.152,486.997C196.096,482.928 206.093,483.89 215.635,483.994C216.467,478.183 216.428,471.644 213.347,466.47C210.994,462.596 206.274,462.908 202.335,463.051C198.813,465.547 197.539,469.577 196.967,473.672C189.635,473.724 182.303,473.919 174.971,473.646C175.399,466.561 177.688,459.333 183.316,454.666ZM454.549,425.793C462.245,426.157 470.044,424.961 477.637,426.495C477.468,433.541 477.546,440.587 477.52,447.646C481.459,447.633 485.41,447.646 489.362,447.672C489.337,452.859 489.298,458.033 489.376,463.22C488.608,463.415 487.074,463.792 486.308,463.987C483.369,463.428 480.405,463.662 477.48,464.182C477.688,481.108 477.194,498.047 477.74,514.974C479.054,516.39 480.432,517.768 481.875,519.081C484.279,518.925 486.697,518.821 489.115,518.73C489.35,524.06 489.753,529.403 490.793,534.655C488.036,535.552 485.229,536.254 482.446,536.996C472.723,538.009 461.452,534.876 457.148,525.243C456.265,522.149 455.498,519.029 454.679,515.935C454.302,498.671 454.587,481.394 454.536,464.143C451.039,464.143 447.529,464.143 444.032,464.156C443.94,458.683 443.94,453.197 443.993,447.724C447.49,447.698 451,447.672 454.522,447.659C454.522,440.366 454.458,433.073 454.549,425.793ZM413.092,410.128C413.442,409.855 414.145,409.296 414.496,409.023C421.659,408.698 428.848,409.049 436.037,408.919C436.088,450.909 436.023,492.912 436.102,534.902C428.614,535.422 421.035,536.228 413.573,535.24C413.456,534.655 413.208,533.485 413.092,532.914C413.065,491.976 412.988,451.052 413.092,410.128ZM272.718,476.701C270.82,487.101 270.82,497.761 272.691,508.161C274.265,513.608 278.061,520.147 284.704,519.224C289.527,519.654 292.985,515.935 295.663,512.464C295.545,499.113 295.52,485.775 295.702,472.424C293.388,467.822 288.98,463.558 283.417,464.286C276.826,464.273 274.369,471.501 272.718,476.701ZM295.545,455.03C295.688,439.664 295.455,424.285 295.663,408.906C303.125,408.932 310.574,408.945 318.036,408.906C318.309,450.935 318.036,492.951 318.153,534.967C311.64,535.097 305.101,536.293 298.64,534.902C298.21,531.756 297.574,528.662 296.897,525.568C293.908,531.366 288.46,535.331 282.247,537.073C274.94,537.606 267.127,536.202 261.512,531.197C254.192,524.646 251.189,514.857 249.331,505.522C248.603,496.838 248.642,488.089 249.383,479.405C250.54,473.568 252.021,467.783 254.439,462.323C258.6,453.626 266.79,446.073 276.956,446.203C284.392,445.319 290.619,450.09 295.545,455.03Z" style="fill:rgb(13,162,220);fill-rule:nonzero;"/>
        <path d="M373.819,528.922C375.209,526.933 376.666,524.996 378.226,523.123C379.058,527.076 379.851,531.028 380.618,534.993C386.584,535.11 392.617,534.512 398.558,535.448L399.792,535.682C393.28,536.423 386.663,536.514 380.149,535.955C378.577,532.731 378.33,529.065 377.667,525.581C376.705,526.414 374.781,528.077 373.819,528.922Z" style="fill:rgb(40,79,94);fill-rule:nonzero;"/>
    </g>
</svg>
